<svg xmlns="http://www.w3.org/2000/svg" width="1600" height="640" viewBox="0 0 1600 640" role="img" aria-labelledby="title desc"><title id="title">ynzhang — full-stack engineer</title><desc id="desc">Editorial profile poster with a sculptural retro computer terminal.</desc><defs><pattern id="grid" width="40" height="40" patternUnits="userSpaceOnUse"><path d="M40 0H0V40" fill="none" stroke="#F5F2EC" stroke-opacity="0.032" stroke-width="1"/></pattern><pattern id="scan" width="6" height="6" patternUnits="userSpaceOnUse"><path d="M0 5.5H6" stroke="#0B0B0A" stroke-opacity="0.07" stroke-width="1"/></pattern><linearGradient id="body" x1="0" y1="0" x2="1" y2="1"><stop offset="0" stop-color="#F5F2EC"/><stop offset="0.55" stop-color="#E8E2D8"/><stop offset="1" stop-color="#62584E"/></linearGradient><linearGradient id="keyboard" x1="0" y1="0" x2="0" y2="1"><stop offset="0" stop-color="#F7F4EE"/><stop offset="1" stop-color="#D5CEC3"/></linearGradient><clipPath id="screen-clip"><rect x="952" y="176" width="332" height="198" rx="20"/></clipPath></defs><rect width="1600" height="640" fill="#0B0B0A"/><rect width="1600" height="640" fill="url(#grid)"/><g stroke="#F5F2EC" stroke-opacity="0.20" stroke-width="1"><path d="M64 52H1536"/><path d="M64 588H1536"/><path d="M64 52V588"/><path d="M548 52V588"/><path d="M1536 52V588"/></g><g fill="#F5F2EC" font-family="Arial, Helvetica, sans-serif"><text x="82" y="94" font-size="15" font-weight="700" letter-spacing="3.4">FULL-STACK / AI PRODUCT SYSTEMS</text><text x="80" y="212" font-size="92" font-weight="900" letter-spacing="-4">YNZHANG</text><text x="84" y="270" font-size="25" font-weight="700">Building systems that stay coherent</text><text x="84" y="306" font-size="25" font-weight="700">from product intent to runtime evidence.</text></g><g font-family="ui-monospace, SFMono-Regular, Menlo, Consolas, monospace" fill="#F5F2EC"><text x="84" y="398" font-size="14" letter-spacing="1.8">FOCUS / AI-NATIVE PRODUCT SYSTEMS</text><text x="84" y="430" font-size="14" letter-spacing="1.8">METHOD / CONTRACT-FIRST DELIVERY</text><text x="84" y="462" font-size="14" letter-spacing="1.8">STANDARD / EVIDENCE BEFORE CLAIMS</text></g><rect x="84" y="516" width="328" height="8" fill="#A33B3E"/><text x="84" y="560" fill="#AAA197" font-family="ui-monospace, SFMono-Regular, Menlo, Consolas, monospace" font-size="12" letter-spacing="2.2">@ZYYYYYNNN / EST. 2026</text><g font-family="ui-monospace, SFMono-Regular, Menlo, Consolas, monospace" fill="#F5F2EC"><text x="584" y="92" font-size="12" letter-spacing="2">FIG. 01 — PERSONAL TERMINAL</text><text x="1506" y="92" text-anchor="end" font-size="12" letter-spacing="2">TERMINAL / READY</text></g><ellipse cx="1130" cy="528" rx="348" ry="30" fill="#F5F2EC" opacity="0.10"/><g><path d="M848 148C848 124 867 106 891 106H1329C1353 106 1372 124 1372 148V414C1372 438 1353 456 1329 456H891C867 456 848 438 848 414Z" fill="#F5F2EC" opacity="0.10" transform="translate(10 12)"/><path d="M830 132C830 106 851 86 877 86H1315C1341 86 1362 106 1362 132V398C1362 424 1341 444 1315 444H877C851 444 830 424 830 398Z" fill="url(#body)" stroke="#F5F2EC" stroke-width="3"/><path d="M866 120H1326" stroke="#FFFFFF" stroke-opacity="0.58" stroke-width="2"/><path d="M856 408H1336" stroke="#AAA197" stroke-opacity="0.32" stroke-width="2"/><rect x="920" y="150" width="396" height="250" rx="30" fill="#B8AFA2" stroke="#F5F2EC" stroke-width="2.4"/><rect x="952" y="176" width="332" height="198" rx="20" fill="#0A0A09" stroke="#F5F2EC" stroke-width="3"/><g clip-path="url(#screen-clip)"><rect x="952" y="176" width="332" height="198" fill="#0A0A09"/><rect x="952" y="176" width="332" height="198" fill="url(#scan)"/><ellipse cx="1118" cy="270" rx="145" ry="82" fill="#0B0B0A" opacity="0.035"/><g font-family="ui-monospace, SFMono-Regular, Menlo, Consolas, monospace" font-size="14"><text x="976" y="220" fill="#F0EBDD">ynzhang@system ~ % boot profile</text><text x="976" y="250" fill="#CFC6B9">&gt; align product intent</text><text x="976" y="278" fill="#CFC6B9">&gt; compose architecture</text><text x="976" y="306" fill="#CFC6B9">&gt; verify runtime evidence</text><text x="976" y="340" fill="#F0EBDD">status: ready</text><rect x="1086" y="328" width="11" height="17" fill="#A33B3E"/></g></g><g fill="#AAA197" opacity="0.55"><rect x="1268" y="420" width="11" height="4" rx="2"/><rect x="1285" y="420" width="11" height="4" rx="2"/><rect x="1302" y="420" width="11" height="4" rx="2"/></g><circle cx="885" cy="414" r="6" fill="#A33B3E"/><path d="M938 444H1254L1290 490H902Z" fill="#C8C0B4" stroke="#F5F2EC" stroke-width="3"/><path d="M770 474L938 444H1254L1418 474L1360 532H824Z" fill="url(#keyboard)" stroke="#F5F2EC" stroke-width="3"/><path d="M824 532H1360" stroke="#AAA197" stroke-opacity="0.55" stroke-width="2"/><g fill="#B9B0A4" stroke="#F5F2EC" stroke-opacity="0.22" stroke-width="0.8"><rect x="824" y="486" width="48" height="18" rx="3"/><rect x="878" y="482" width="48" height="18" rx="3"/><rect x="932" y="478" width="48" height="18" rx="3"/><rect x="986" y="474" width="48" height="18" rx="3"/><rect x="1040" y="470" width="48" height="18" rx="3"/><rect x="1094" y="470" width="48" height="18" rx="3"/><rect x="1148" y="474" width="48" height="18" rx="3"/><rect x="1202" y="478" width="48" height="18" rx="3"/><rect x="1256" y="482" width="48" height="18" rx="3"/><rect x="1310" y="486" width="48" height="18" rx="3"/><rect x="842" y="508" width="50" height="17" rx="3"/><rect x="898" y="504" width="50" height="17" rx="3"/><rect x="954" y="500" width="50" height="17" rx="3"/><rect x="1010" y="496" width="50" height="17" rx="3"/><rect x="1066" y="494" width="104" height="17" rx="3"/><rect x="1176" y="496" width="50" height="17" rx="3"/><rect x="1232" y="500" width="50" height="17" rx="3"/><rect x="1288" y="504" width="50" height="17" rx="3"/></g></g><g font-family="ui-monospace, SFMono-Regular, Menlo, Consolas, monospace" font-size="11" fill="#AAA197"><text x="596" y="564" letter-spacing="1.8">OBJECT / CRT TERMINAL</text><text x="1506" y="564" text-anchor="end" letter-spacing="1.8">POWER / ON · CURSOR / ACTIVE</text></g></svg>