<svg xmlns="http://www.w3.org/2000/svg" width="1280" height="360" viewBox="0 0 1280 360" role="img" aria-labelledby="title desc">
  <title id="title">ynzhang — full-stack engineer</title>
  <desc id="desc">Editorial engineering profile banner in a restrained dark neutral palette.</desc>
  <rect width="1280" height="360" rx="24" fill="#0B0B0A"/>
  <rect x="1" y="1" width="1278" height="358" rx="23" fill="none" stroke="#3C3730"/>

  <line x1="56" y1="70" x2="170" y2="70" stroke="#A33B3E" stroke-width="2"/>
  <text x="56" y="58" fill="#AAA197" font-family="Inter, Arial, sans-serif" font-size="13" letter-spacing="2.2">PROFILE / ENGINEERING</text>

  <text x="56" y="122" fill="#F5F2EC" font-family="Georgia, 'Times New Roman', serif" font-size="56" font-weight="600">YNZHANG</text>
  <text x="58" y="148" fill="#AAA197" font-family="ui-monospace, SFMono-Regular, Consolas, monospace" font-size="15" letter-spacing="2">@ZYYYYYNNN</text>

  <text x="56" y="204" fill="#F5F2EC" font-family="Inter, Arial, sans-serif" font-size="34" font-weight="650">Full-stack engineer building</text>
  <text x="56" y="244" fill="#F5F2EC" font-family="Inter, Arial, sans-serif" font-size="34" font-weight="650">AI-native product systems.</text>

  <text x="58" y="288" fill="#CBC3B8" font-family="Inter, Arial, sans-serif" font-size="16">Architecture · Data workflows · Reliable application delivery</text>

  <g transform="translate(720 54)">
    <rect x="0" y="0" width="504" height="252" rx="18" fill="#141311" stroke="#3C3730"/>
    <text x="28" y="34" fill="#AAA197" font-family="ui-monospace, SFMono-Regular, Consolas, monospace" font-size="11" letter-spacing="1.6">SYSTEM VIEW</text>

    <g font-family="Inter, Arial, sans-serif" font-size="14" font-weight="600">
      <rect x="28" y="70" width="96" height="34" rx="17" fill="#1A1917" stroke="#62584E"/>
      <text x="76" y="92" text-anchor="middle" fill="#F5F2EC">INPUT</text>

      <rect x="168" y="70" width="116" height="34" rx="17" fill="#1A1917" stroke="#62584E"/>
      <text x="226" y="92" text-anchor="middle" fill="#F5F2EC">CONTRACT</text>

      <rect x="328" y="70" width="90" height="34" rx="17" fill="#1A1917" stroke="#62584E"/>
      <text x="373" y="92" text-anchor="middle" fill="#F5F2EC">BUILD</text>

      <rect x="28" y="170" width="112" height="34" rx="17" fill="#1A1917" stroke="#62584E"/>
      <text x="84" y="192" text-anchor="middle" fill="#F5F2EC">OBSERVE</text>

      <rect x="184" y="170" width="96" height="34" rx="17" fill="#1A1917" stroke="#62584E"/>
      <text x="232" y="192" text-anchor="middle" fill="#F5F2EC">VERIFY</text>

      <rect x="324" y="170" width="112" height="34" rx="17" fill="#A33B3E"/>
      <text x="380" y="192" text-anchor="middle" fill="#FBFAF6">SHIP</text>
    </g>

    <g stroke="#62584E" stroke-width="2.2" fill="none" stroke-linecap="round">
      <path d="M124 87 H168"/>
      <path d="M284 87 H328"/>
      <path d="M84 104 V138 H84"/>
      <path d="M232 104 V138 H232"/>
      <path d="M373 104 V138 H380"/>
      <path d="M84 138 H232"/>
      <path d="M232 138 H380"/>
    </g>

    <g fill="#A33B3E">
      <circle cx="84" cy="138" r="5"/>
      <circle cx="232" cy="138" r="5"/>
      <circle cx="380" cy="138" r="5"/>
    </g>

    <text x="28" y="232" fill="#AAA197" font-family="Inter, Arial, sans-serif" font-size="14">Structure before ornament. Evidence before claims.</text>
  </g>
</svg>
